<?xml version="1.0" encoding="UTF-8"?>
<svg id="Layer_1" data-name="Layer 1" xmlns="http://www.w3.org/2000/svg" xmlns:xlink="http://www.w3.org/1999/xlink" viewBox="0 0 241.05 256">
  <defs>
    <style>
      .cls-1 {
        fill: url(#radial-gradient);
        stroke-width: 0px;
      }
    </style>
    <radialGradient id="radial-gradient" cx="108.37" cy="135.2" fx="108.37" fy="135.2" r="96.34" gradientUnits="userSpaceOnUse">
      <stop offset="0" stop-color="#b1d4e0"/>
      <stop offset=".5" stop-color="#2d89bf"/>
      <stop offset="1" stop-color="#145da0"/>
    </radialGradient>
  </defs>
  <path class="cls-1" d="M112.97,0v28.97c-.47,0-.93-.02-1.4-.02-19.53,0-38.34,5.22-54.47,14.35C18.01,64.81-6.22,110.07,1.4,157.75c15.79,94.59,129.77,129.91,199.38,65.63,24.26-22.21,39.1-54.8,40.17-87.81C243.95,63.22,185.06,2.11,112.97,0ZM97.45,232.75c-12.16,0-23.6-2.56-23.6-2.56-10.1-2.6-17.89-6.65-23.08-9.88-26.13-19.33-43.3-50.41-43.01-84.74-.02-2.22.04-4.43.16-6.63,2.76,48.58,40.99,85.48,89.53,85.48,39.46,0,71.57-32.1,71.57-71.56,0-30.56-24.86-55.42-55.42-55.42-23.44,0-42.5,19.07-42.5,42.5,0,17.74,14.43,32.17,32.17,32.17,9.6,0,17.9-5.69,21.69-13.87-4.01,6.46-11.17,10.77-19.31,10.77-14.39,0-26.09-11.71-26.09-26.1,0-16.72,13.6-30.33,30.33-30.33,19.64,0,35.61,15.98,35.61,35.62,0,23.29-18.94,42.23-42.23,42.23-27.84,0-50.5-22.65-50.5-50.5,0-33.54,27.29-60.83,60.83-60.83,40.67,0,73.75,33.08,73.75,73.75,0,49.56-40.33,89.89-89.89,89.89Z"/>
</svg>
