<?xml version="1.0" encoding="UTF-8" standalone="no"?><!DOCTYPE svg PUBLIC "-//W3C//DTD SVG 1.1//EN" "http://www.w3.org/Graphics/SVG/1.1/DTD/svg11.dtd"><svg width="100%" height="100%" viewBox="0 0 1087 1020" version="1.1" xmlns="http://www.w3.org/2000/svg" xmlns:xlink="http://www.w3.org/1999/xlink" xml:space="preserve" xmlns:serif="http://www.serif.com/" style="fill-rule:evenodd;clip-rule:evenodd;stroke-linejoin:round;stroke-miterlimit:2;"><path d="M219.033,917.52c-31.666,-9.906 -27.978,-15.697 -54.75,-35.147c-15.272,-11.094 -53.237,-54.487 -66.781,-74.362c-239.944,-352.106 33.85,-672.544 71.025,-674.084c24.859,-1.031 14.822,46.628 14.678,48.644c-1.416,19.806 -11.556,161.656 33.203,245.969c24.678,46.488 -8.991,52.816 14.625,143.341c12.781,49 12.9,49 10.188,123.291c-7.35,201.45 9.059,217.347 -22.187,222.353l-0,-0.003Z" style="fill:#fdb583;"/><path d="M273.261,337.83c-5.172,9.038 -19.706,51.159 -28.619,9.888c-33.319,-154.334 10.616,-276.175 15.291,-279.791c87.25,-67.506 369.519,-113.766 552.75,6.541c8.969,5.891 7.837,27.694 -4.878,37.384c-25.309,19.288 -128.091,75.322 -139.434,81.509c-41.216,22.469 -40.397,26.016 -50.906,23.653c-66.522,-14.966 -155.044,-34.222 -278.413,49.497c-5.556,3.772 -42.953,36.816 -65.791,71.325l-0,-0.006Z" style="fill:#fcb985;"/><path d="M771.97,959.423c-174.647,96.341 -421.925,58.812 -450.647,13.834c-34.809,-54.509 -38.103,-126.938 -28.709,-264.309c0.838,-12.247 4.775,-17.772 12.744,-8.75c50.812,57.541 153.819,97.588 233.991,92.125c113.066,-7.706 118.003,-55.916 150.181,-23.081c120.331,122.794 119.494,130.587 117.9,145.481c-3.309,30.881 -18.231,33.563 -35.456,44.697l-0.003,0.003Z" style="fill:#fc8d76;"/><path d="M1059.351,434.505c10.809,54.591 23.15,72.013 -30.125,87.15c-112.406,31.941 -213.153,-54.319 -215.112,-64.553c-20.634,-107.728 -41.375,-128.666 -126.219,-203.609c-13.241,-11.697 4.906,-10.272 116.028,-77.009c69.491,-41.734 85.737,-65.206 136.366,-1.641c82.941,104.128 113.891,237.403 119.059,259.663l0.003,-0Z" style="fill:#fc9578;"/><path d="M915.042,860.823c-23.044,9.25 -21.847,11.228 -45.256,19.534c-13.756,4.881 -10.828,-4.866 -55.503,-52.737c-93.25,-99.922 -97.591,-103.863 -89.884,-112.419c17.506,-19.441 46.103,-36.228 81.238,-129.569c8.644,-22.966 6.584,-56.166 17.603,-51.238c65.006,29.081 61.991,39.163 132.659,45.856c65.047,6.163 118.581,-23.897 120.609,-4.566c16.837,160.478 8.516,174.069 0.709,186.816c-23.3,38.047 -61.628,52.406 -162.175,98.319l0,0.003Z" style="fill:#fb7d70;"/></svg>
