<svg xmlns="http://www.w3.org/2000/svg" data-name="Layer 1" viewBox="0 0 910.53 966.99"><path d="M426.71 0v109.42c-1.76-.02-3.53-.06-5.3-.06-73.76 0-144.82 19.7-205.73 54.2C68.01 244.79-23.5 415.78 5.28 595.87c59.63 357.29 490.18 490.69 753.11 247.9 91.65-83.9 147.68-206.99 151.72-331.68C921.45 238.8 699.04 7.98 426.71 0M368.1 879.16c-45.94 0-89.13-9.66-89.13-9.66-38.17-9.83-67.59-25.13-87.18-37.31-98.71-73.01-163.57-190.41-162.48-320.1-.07-8.4.14-16.74.61-25.02C40.36 670.55 184.74 809.94 368.1 809.94c149.06 0 270.32-121.27 270.32-270.31 0-115.43-93.9-209.33-209.33-209.33-88.52 0-160.54 72.02-160.54 160.54 0 67 54.5 121.5 121.5 121.5 36.26 0 67.6-21.49 81.94-52.39-15.14 24.4-42.17 40.69-72.95 40.69-54.34 0-98.56-44.22-98.56-98.57 0-63.17 51.39-114.56 114.56-114.56 74.18 0 134.53 60.36 134.53 134.54 0 87.97-71.56 159.52-159.52 159.52-105.18 0-190.74-85.56-190.74-190.74 0-126.7 103.07-229.77 229.77-229.77 153.6 0 278.56 124.96 278.56 278.56 0 187.22-152.32 339.54-339.56 339.54Z" style="fill:#fff;stroke-width:0"/></svg>
