<?xml version="1.0" encoding="UTF-8" standalone="no"?><!DOCTYPE svg PUBLIC "-//W3C//DTD SVG 1.1//EN" "http://www.w3.org/Graphics/SVG/1.1/DTD/svg11.dtd"><svg width="100%" height="100%" viewBox="0 0 1214 327" version="1.1" xmlns="http://www.w3.org/2000/svg" xmlns:xlink="http://www.w3.org/1999/xlink" xml:space="preserve" xmlns:serif="http://www.serif.com/" style="fill-rule:evenodd;clip-rule:evenodd;stroke-linejoin:round;stroke-miterlimit:2;"><g id="Background"><path d="M494.837,94.362c51.992,-0.301 101.765,4.267 92.807,57.886c-4.022,24.071 -38.891,30.874 -43.091,31.693c-38.383,7.488 -79.407,-0.047 -79.645,6.185c-1.183,30.886 2.248,35.033 -5.227,35.064c-49.419,0.205 -49.348,-1.031 -49.583,-1.373c-0.504,-0.737 -0.842,-127.102 0.176,-128.49c0.825,-1.125 1.221,-0.964 84.563,-0.964Zm-29.963,44.602c-0.013,1.853 -2.14,16.076 3.597,16.078c39.516,0.013 72.562,1.924 64.586,-19.064c-3.965,-10.435 -27.569,-9.46 -58.728,-9.324c-0.7,0.003 -8.067,0.035 -8.724,0.66c-1.327,1.263 -0.626,1.572 -0.732,11.65Z" style="fill:#fb8273;"/><path d="M998.323,222.182c0.136,1.107 0.272,2.213 0.407,3.32c-51.233,-1.616 -66.473,2.881 -75.26,-3.79c-49.428,-37.523 -50.194,-41.536 -54.749,-38.309c-25.343,17.953 -29.315,18.235 -29.383,22.956c-0.106,7.334 2.301,18.829 -4.659,18.833c-48.549,0.026 -50.323,0.445 -50.537,-2.78c-0.65,-9.819 0.08,-9.77 0.095,-123c0.001,-5.558 1.758,-5.085 6.498,-5.049c39.944,0.302 48.541,-1.868 48.577,3.581c0.342,51.748 -2.603,58.806 2.967,54.79c1.558,-1.123 82.138,-56.569 83.44,-57.348c4.808,-2.878 5.312,-0.911 70.029,-1.429c6.286,-0.05 -8.544,8.497 -24.385,19.315c-62.189,42.468 -68.134,43.446 -63.058,47.179c3.719,2.735 3.721,2.393 46.994,33.479c38.701,27.801 38.916,27.974 43.024,28.255Z" style="fill:#fb8273;"/><path d="M998.323,222.182c51.642,-79.352 79.605,-127.146 83.84,-127.743c0.657,-0.093 46.479,-0.07 47.008,-0.016c4.987,0.516 35.167,52.722 82.791,125.528c4.227,6.462 -1.03,5.253 -3.746,5.233c-39.435,-0.296 -47.793,1.714 -50.619,-3.111c-9.442,-16.123 -8.388,-17.893 -12.43,-18.078c-1.931,-0.088 -77.426,-0.052 -77.564,-0.047c-8.11,0.298 -10.127,21.195 -19.057,21.239c-25.233,0.124 -40.418,-0.342 -49.816,0.315l-0.407,-3.32Zm120.232,-68.395c-5.469,-9.491 -5.258,-9.409 -10.617,-18.799c-2.561,-4.487 -6.059,3.472 -13.265,16.105c-10.225,17.928 -12.014,20.457 -8.095,20.519c3.18,0.05 30.631,0.484 39.75,-0.069c3.385,-0.205 -4.335,-11.668 -7.773,-17.756Z" style="fill:#fb8273;"/><path d="M653.859,144.823c-0.136,25.751 -2.862,50.267 35.719,47.684c18.091,-1.211 20.935,-20.245 21.303,-22.709c4.146,-27.749 -2.153,-74.27 3.565,-75.362c4.994,-0.954 41.885,-0.222 45.527,-0.15c9.616,0.191 6.808,4.394 6.831,13.916c0.17,69.526 11.664,125.371 -99.068,119.448c-79.878,-4.272 -69.035,-65.954 -69.027,-119.448c0,-1.088 0.002,-12.974 1.421,-13.531c0.597,-0.235 51.561,-0.932 52.914,0.344c1.374,1.296 0.357,8.375 0.815,49.808Z" style="fill:#fb8273;"/><path d="M70.09,293.607c-10.133,-3.17 -8.953,-5.023 -17.52,-11.247c-4.887,-3.55 -17.036,-17.436 -21.37,-23.796c-76.782,-112.674 10.832,-215.214 22.728,-215.707c7.955,-0.33 4.743,14.921 4.697,15.566c-0.453,6.338 -3.698,51.73 10.625,78.71c7.897,14.876 -2.877,16.901 4.68,45.869c4.09,15.68 4.128,15.68 3.26,39.453c-2.352,64.464 2.899,69.551 -7.1,71.153Z" style="fill:#fdb583;"/><path d="M87.443,108.106c-1.655,2.892 -6.306,16.371 -9.158,3.164c-10.662,-49.387 3.397,-88.376 4.893,-89.533c27.92,-21.602 118.246,-36.405 176.88,2.093c2.87,1.885 2.508,8.862 -1.561,11.963c-8.099,6.172 -40.989,24.103 -44.619,26.083c-13.189,7.19 -12.927,8.325 -16.29,7.569c-21.287,-4.789 -49.614,-10.951 -89.092,15.839c-1.778,1.207 -13.745,11.781 -21.053,22.824Z" style="fill:#fcb985;"/><path d="M247.03,307.016c-55.887,30.829 -135.016,18.82 -144.207,4.427c-11.139,-17.443 -12.193,-40.62 -9.187,-84.579c0.268,-3.919 1.528,-5.687 4.078,-2.8c16.26,18.413 49.222,31.228 74.877,29.48c36.181,-2.466 37.761,-17.893 48.058,-7.386c38.506,39.294 38.238,41.788 37.728,46.554c-1.059,9.882 -5.834,10.74 -11.346,14.303Z" style="fill:#fc8d76;"/><path d="M338.992,139.042c3.459,17.469 7.408,23.044 -9.64,27.888c-35.97,10.221 -68.209,-17.382 -68.836,-20.657c-6.603,-34.473 -13.24,-41.173 -40.39,-65.155c-4.237,-3.743 1.57,-3.287 37.129,-24.643c22.237,-13.355 27.436,-20.866 43.637,-0.525c26.541,33.321 36.445,75.969 38.099,83.092Z" style="fill:#fc9578;"/><path d="M292.813,275.464c-7.374,2.96 -6.991,3.593 -14.482,6.251c-4.402,1.562 -3.465,-1.557 -17.761,-16.876c-29.84,-31.975 -31.229,-33.236 -28.763,-35.974c5.602,-6.221 14.753,-11.593 25.996,-41.462c2.766,-7.349 2.107,-17.973 5.633,-16.396c20.802,9.306 19.837,12.532 42.451,14.674c20.815,1.972 37.946,-7.647 38.595,-1.461c5.388,51.353 2.725,55.702 0.227,59.781c-7.456,12.175 -19.721,16.77 -51.896,31.462Z" style="fill:#fb7d70;"/></g></svg>